<svg id="crokinole-svg" xmlns="http://www.w3.org/2000/svg" width="100%" viewBox=" -1 -1 40 40">
  <g id="transformations">
  <clipPath id="clipBorder">
    <rect width="40" height="40" />
  </clipPath>
  <circle id="background" cx="13" cy="13" r="13" fill="#036602" stroke="#aaa" stroke-width="0.5" />
  <circle id="20-hole" cx="13" cy="13" r="0.6875" stroke="black" fill="black" stroke-width="0.1" />
  <circle id="15-circle" cx="13" cy="13" r="4" stroke="white" fill="transparent" stroke-width="0.1" />
  <circle id="10-circle" cx="13" cy="13" r="8" stroke="white" fill="transparent" stroke-width="0.1" />
  <circle id="oob-circle" cx="13" cy="13" r="12" stroke="white" fill="transparent" stroke-width="0.1" />
  <circle id="rim" cx="13" cy="13" r="13" stroke="black" fill="transparent" stroke-width="0.1" />
  <line id="shooterA-divider-line" x1="4.5" x2="7.35" y1="4.5" y2="7.35" stroke-width="0.1" stroke="white"/>
  <line id="shooterB-divider-line" x1="21.5" x2="18.65" y1="4.5" y2="7.35" stroke-width="0.1" stroke="white"/>
  <line id="shooterC-divider-line" x1="21.5" x2="18.65" y1="21.5" y2="18.65" stroke-width="0.1" stroke="white"/>
  <line id="shooterD-divider-line" x1="4.5" x2="7.35" y1="21.5" y2="18.65" stroke-width="0.1" stroke="white"/>
  <circle id="post1" cx="16.7" cy="14.6" r="0.2" stroke="black" fill="black" stroke-width="0.1" />
  <circle id="post1" cx="16.7" cy="11.4" r="0.2" stroke="black" fill="black" stroke-width="0.1" />
  <circle id="post1" cx="9.3" cy="14.6" r="0.2" stroke="black" fill="black" stroke-width="0.1" />
  <circle id="post1" cx="9.3" cy="11.4" r="0.2" stroke="black" fill="black" stroke-width="0.1" />
  <circle id="post1" cx="14.6" cy="9.3" r="0.2" stroke="black" fill="black" stroke-width="0.1" />
  <circle id="post1" cx="14.6" cy="16.7" r="0.2" stroke="black" fill="black" stroke-width="0.1" />
  <circle id="post1" cx="11.4" cy="9.3" r="0.2" stroke="black" fill="black" stroke-width="0.1" />
  <circle id="post1" cx="11.4" cy="16.7" r="0.2" stroke="black" fill="black" stroke-width="0.1" />
  </g>
</svg>
